<?xml version="1.0" encoding="UTF-8" standalone="no"?>
<!-- Created with Inkscape (http://www.inkscape.org/) -->

<svg
   xmlns:dc="http://purl.org/dc/elements/1.1/"
   xmlns:cc="http://creativecommons.org/ns#"
   xmlns:rdf="http://www.w3.org/1999/02/22-rdf-syntax-ns#"
   xmlns:svg="http://www.w3.org/2000/svg"
   xmlns="http://www.w3.org/2000/svg"
   xmlns:xlink="http://www.w3.org/1999/xlink"
   xmlns:sodipodi="http://sodipodi.sourceforge.net/DTD/sodipodi-0.dtd"
   xmlns:inkscape="http://www.inkscape.org/namespaces/inkscape"
   width="210mm"
   height="297mm"
   id="svg2"
   version="1.1"
   inkscape:version="0.48.4 r9939"
   sodipodi:docname="sprite_cartoon.svg">
  <defs
     id="defs4">
    <linearGradient
       inkscape:collect="always"
       id="linearGradient3774">
      <stop
         style="stop-color:#999999;stop-opacity:1"
         offset="0"
         id="stop3776" />
      <stop
         style="stop-color:#ffffff;stop-opacity:0;"
         offset="1"
         id="stop3778" />
    </linearGradient>
    <linearGradient
       id="linearGradient3233">
      <stop
         style="stop-color:#cccccc;stop-opacity:1"
         offset="0"
         id="stop3235" />
      <stop
         style="stop-color:#e6e6e6;stop-opacity:0;"
         offset="1"
         id="stop3237" />
    </linearGradient>
    <linearGradient
       inkscape:collect="always"
       xlink:href="#linearGradient3233"
       id="linearGradient4009"
       x1="332.60489"
       y1="652.84644"
       x2="315.90829"
       y2="556.8819"
       gradientUnits="userSpaceOnUse"
       gradientTransform="matrix(1.0762214,0,0,0.95770837,-19.116323,23.780202)" />
    <linearGradient
       inkscape:collect="always"
       xlink:href="#linearGradient3774"
       id="linearGradient3782"
       x1="305.74591"
       y1="688.98755"
       x2="298.32458"
       y2="540.49518"
       gradientUnits="userSpaceOnUse"
       gradientTransform="matrix(1.0594093,0,0,1.0050167,-19.583991,-2.5408971)" />
  </defs>
  <sodipodi:namedview
     id="base"
     pagecolor="#ffffff"
     bordercolor="#666666"
     borderopacity="1.0"
     inkscape:pageopacity="0.0"
     inkscape:pageshadow="2"
     inkscape:zoom="0.98994949"
     inkscape:cx="308.84032"
     inkscape:cy="554.15043"
     inkscape:document-units="px"
     inkscape:current-layer="layer1"
     showgrid="false"
     showguides="true"
     inkscape:guide-bbox="true"
     inkscape:window-width="1920"
     inkscape:window-height="1033"
     inkscape:window-x="0"
     inkscape:window-y="25"
     inkscape:window-maximized="1" />
  <metadata
     id="metadata7">
    <rdf:RDF>
      <cc:Work
         rdf:about="">
        <dc:format>image/svg+xml</dc:format>
        <dc:type
           rdf:resource="http://purl.org/dc/dcmitype/StillImage" />
        <dc:title></dc:title>
      </cc:Work>
    </rdf:RDF>
  </metadata>
  <g
     inkscape:label="Camada 1"
     inkscape:groupmode="layer"
     id="layer1">
    <path
       style="color:#000000;fill:#ffffff;fill-opacity:1;fill-rule:nonzero;stroke:#000000;stroke-width:1.5;stroke-linecap:round;stroke-linejoin:round;stroke-miterlimit:4;stroke-opacity:1;stroke-dasharray:none;stroke-dashoffset:0;marker:none;visibility:visible;display:inline;overflow:visible;enable-background:accumulate"
       d="m 227.4537,220.29585 c -37.79979,9.81167 -61.69213,43.80399 -53.35221,75.9338 2.90308,11.18424 9.31773,20.69213 18.05497,27.88965 -26.44583,18.50782 -40.798,45.31719 -34.32555,70.25249 9.32108,35.9098 58.2572,54.29225 109.2869,41.0465 4.76576,-1.23705 9.36605,-2.71469 13.80837,-4.39137 16.63511,13.0054 42.69016,17.9114 69.30012,11.00427 39.68977,-10.30225 65.56227,-42.94923 57.78302,-72.91906 -0.62569,-2.41049 -1.4727,-4.72065 -2.48027,-6.94331 7.65717,-14.80541 10.12411,-31.89391 5.76246,-48.6973 -9.95183,-38.33978 -51.72544,-60.6691 -93.30519,-49.87627 -2.06228,0.53531 -4.06576,1.1535 -6.04721,1.82796 -0.25566,-1.57386 -0.56013,-3.15297 -0.96713,-4.72095 -8.33992,-32.12981 -45.7185,-50.21807 -83.51828,-40.40641 z"
       id="path4030"
       inkscape:connector-curvature="0"
       inkscape:export-filename="/home/henrique/spider/spider/Templates/sprites/sprite_cartoon_1.svg.png"
       inkscape:export-xdpi="300"
       inkscape:export-ydpi="300" />
    <path
       inkscape:connector-curvature="0"
       id="path2992"
       d="m 254.72782,486.97612 c -37.79979,9.81167 -61.69213,43.80399 -53.35221,75.9338 2.90308,11.18424 9.31773,20.69213 18.05497,27.88965 -26.44583,18.50782 -40.798,45.31719 -34.32555,70.25249 9.32108,35.9098 58.2572,54.29225 109.2869,41.0465 4.76576,-1.23705 9.36605,-2.71469 13.80837,-4.39137 16.63511,13.0054 42.69016,17.9114 69.30012,11.00427 39.68977,-10.30225 65.56227,-42.94923 57.78302,-72.91906 -0.62569,-2.41049 -1.4727,-4.72065 -2.48027,-6.94331 7.65717,-14.80541 10.12411,-31.89391 5.76246,-48.6973 -9.95183,-38.33978 -51.72544,-60.6691 -93.30519,-49.87627 -2.06228,0.53531 -4.06576,1.1535 -6.04721,1.82796 -0.25566,-1.57386 -0.56013,-3.15297 -0.96713,-4.72095 -8.33992,-32.12981 -45.7185,-50.21807 -83.51828,-40.40641 z"
       style="color:#000000;fill:#ffffff;fill-opacity:1;fill-rule:nonzero;stroke:#000000;stroke-width:1.5;stroke-linecap:round;stroke-linejoin:round;stroke-miterlimit:4;stroke-opacity:1;stroke-dasharray:none;stroke-dashoffset:0;marker:none;visibility:visible;display:inline;overflow:visible;enable-background:accumulate"
       inkscape:export-filename="/home/henrique/spider/spider/Templates/sprites/sprite-cartoon_2.png"
       inkscape:export-xdpi="300"
       inkscape:export-ydpi="300" />
    <path
       style="color:#000000;fill:url(#linearGradient3782);fill-opacity:1;fill-rule:nonzero;stroke:none;stroke-width:1.4113282;marker:none;visibility:visible;display:inline;overflow:visible;enable-background:accumulate"
       d="m 255.33053,508.85999 c -37.07038,8.7265 -60.50167,38.95927 -52.3227,67.53551 2.84707,9.94727 9.13794,18.40359 17.70658,24.80506 -25.93551,16.46085 -40.01075,40.3051 -33.66319,62.48255 9.14122,31.93818 57.13303,48.28753 107.17805,36.50676 4.6738,-1.10023 9.18531,-2.41445 13.54192,-3.90568 16.31411,11.567 41.86639,15.9304 67.96286,9.78719 38.92391,-9.16282 64.29716,-38.19904 56.66801,-64.8542 -0.61361,-2.14389 -1.44427,-4.19855 -2.43241,-6.17538 7.50943,-13.16793 9.92875,-28.36644 5.65128,-43.31138 -9.75981,-34.09939 -50.72732,-53.95909 -91.50473,-44.35995 -2.02249,0.47611 -3.98731,1.02592 -5.93052,1.62579 -0.25074,-1.39979 -0.54933,-2.80425 -0.94848,-4.19881 -8.17899,-28.57626 -44.83629,-44.66395 -81.90667,-35.93746 z"
       id="path2994"
       inkscape:connector-curvature="0"
       inkscape:export-filename="/home/henrique/spider/spider/Templates/sprites/sprite-cartoon_2.png"
       inkscape:export-xdpi="300"
       inkscape:export-ydpi="300" />
  </g>
</svg>
